<svg xmlns="http://www.w3.org/2000/svg" viewBox="0 0 360 100" width="360" height="100"><path fill="none" d="M0 0h360v100H0z"/><g transform="translate(-85.0 -94.0) rotate(0.0 295.0 142.5) scale(1.0 1.0)"><svg width="590" height="285" viewBox="0 0 590 285"><g><path fill="#FF4500" d="M162.93 115.72h5.77l17.4 28.66 17.55-28.66h5.7l-20.62 33.45v19.8h-5.25v-19.95l-20.55-33.3Zm48.37 37.13V129.9h5.1v22.05q0 6.68 2.29 9.97 2.29 3.3 6.79 3.3 3 0 5.81-1.31 2.81-1.31 4.99-3.75 2.17-2.44 3.3-5.66v-24.6h5.1v32.92q0 1.06.45 1.54.45.49 1.35.56v4.05q-.9.08-1.43.12-.52.04-.97.04-1.5-.16-2.59-1.21-1.09-1.04-1.16-2.54l-.15-5.25q-2.55 4.5-6.94 7.04-4.39 2.55-9.49 2.55-6.15 0-9.3-4.27-3.15-4.28-3.15-12.6Zm103.05-6.75v22.87h-5.1v-21.82q0-6.83-2.17-10.05-2.18-3.23-6.45-3.23-4.43 0-7.91 3.15-3.49 3.15-4.92 8.11v23.84h-5.1v-21.82q0-6.9-2.1-10.09-2.1-3.19-6.45-3.19t-7.87 3.08q-3.53 3.07-4.95 8.1v23.92h-5.1V129.9h4.65v8.85q2.47-4.58 6.34-7.05 3.86-2.48 8.58-2.48 4.88 0 7.88 2.78 3 2.77 3.67 7.27 2.7-4.95 6.49-7.5t8.59-2.55q3.3 0 5.59 1.2 2.28 1.2 3.67 3.42 1.39 2.21 2.03 5.32.63 3.11.63 6.94Zm68.93 0v22.87h-5.1v-21.82q0-6.83-2.18-10.05-2.17-3.23-6.45-3.23-4.42 0-7.91 3.15t-4.91 8.11v23.84h-5.1v-21.82q0-6.9-2.1-10.09-2.1-3.19-6.45-3.19t-7.88 3.08q-3.52 3.07-4.95 8.1v23.92h-5.1V129.9h4.65v8.85q2.48-4.58 6.34-7.05 3.86-2.48 8.59-2.48 4.87 0 7.87 2.78 3 2.77 3.68 7.27 2.7-4.95 6.49-7.5 3.78-2.55 8.58-2.55 3.3 0 5.59 1.2t3.68 3.42q1.38 2.21 2.02 5.32.64 3.11.64 6.94Zm12.22 39.45v-4.58q1.05.08 2.03.12.97.04 1.42-.12.9-.15 1.73-1.05.82-.9 1.95-3.45 1.12-2.55 3.15-7.5l-17.03-39.07h5.4l14.33 33.82 13.2-33.82h5.1l-20.25 50.4q-.53 1.42-1.58 2.66-1.05 1.24-2.58 1.95-1.54.72-3.79.79-.68.07-1.39.04-.71-.04-1.69-.19Z"/></g></svg></g><g transform="translate(7.0 14.0) rotate(0.0 34.0 34.0) scale(1.0625 1.0625)"><svg width="64" height="64" viewBox="0 0 64 64"><g><g fill="#FF4500"><path d="M47.773 1H16.227a4.445 4.445 0 0 0-4.44 4.44v53.12a4.445 4.445 0 0 0 4.44 4.44h31.546a4.445 4.445 0 0 0 4.44-4.44V5.44A4.445 4.445 0 0 0 47.773 1zM16.227 3h31.546a2.442 2.442 0 0 1 2.44 2.44v.379h-10.86a.998.998 0 0 0-.829.44l-.922 1.364H26.399L25.48 6.26a1 1 0 0 0-.83-.441H13.789v-.38A2.442 2.442 0 0 1 16.228 3zm33.985 52.673H13.788V7.819h10.331l.92 1.363a1 1 0 0 0 .829.441h12.264a.998.998 0 0 0 .828-.44l.923-1.364h10.33v47.854zM47.772 61H16.228a2.442 2.442 0 0 1-2.44-2.44v-.887h36.425v.887a2.442 2.442 0 0 1-2.44 2.44z"/><path d="M36.08 14.706c-2.642 0-4.95 1.606-6.09 3.933-.923-1.243-2.348-2.059-3.956-2.059-2.422 0-4.46 1.82-4.929 4.22h-1.712a1 1 0 0 0-1 1.016c.06 3.933 1.97 7.515 5.089 9.873h-.176a1 1 0 0 0 0 2h17.311a1 1 0 0 0 0-2h-.175c3.118-2.358 5.028-5.94 5.089-9.873a1 1 0 0 0-1-1.015h-1.694c-.509-3.438-3.359-6.095-6.758-6.095zM26.033 18.58c1.325 0 2.462.933 2.87 2.22H23.16c.408-1.287 1.547-2.22 2.874-2.22zm10.329 13.11H27.56c-3.958-1.53-6.653-4.939-7.103-8.89h23.007c-.449 3.951-3.144 7.36-7.102 8.89zm-5.02-10.89c.474-2.332 2.429-4.094 4.736-4.094s4.262 1.762 4.736 4.095h-9.473zM19.38 39.058h16.087a1 1 0 0 0 0-2H19.38a1 1 0 0 0 0 2zm.014 5.496h16.09a1 1 0 0 0 0-2h-16.09a1 1 0 0 0 0 2zm16.104 3.496h-16.09a1 1 0 0 0 0 2h16.09a1 1 0 0 0 0-2zm9.032-10.992h-3.733a1 1 0 0 0 0 2h3.734a1 1 0 0 0 0-2zm-.003 5.496h-3.733a1 1 0 0 0 0 2h3.733a1 1 0 0 0 0-2zm-.003 5.496H40.79a1 1 0 0 0 0 2h3.734a1 1 0 0 0 0-2z"/></g></g></svg></g></svg>